<svg width="22" height="22" viewBox="0 0 22 22" fill="none" xmlns="http://www.w3.org/2000/svg">
<path d="M11.0001 10.3333C13.5942 10.3333 15.6972 8.244 15.6972 5.66667C15.6972 3.08934 13.5942 1 11.0001 1C8.40595 1 6.30298 3.08934 6.30298 5.66667C6.30298 8.244 8.40595 10.3333 11.0001 10.3333Z" stroke="#474747" stroke-width="2" stroke-linecap="round"/>
<path d="M1.40327 17.5972C2.26177 14.4712 5.51741 13 8.77892 13H13.2211C16.4826 13 19.7382 14.4712 20.5967 17.5972C20.7727 18.2383 20.9133 18.9319 20.993 19.6687C21.0722 20.4009 20.4644 21 19.7232 21H2.27676C1.53558 21 0.927774 20.4009 1.00695 19.6687C1.08664 18.9319 1.22724 18.2383 1.40327 17.5972Z" stroke="#474747" stroke-width="2" stroke-linecap="round"/>
</svg>
