<svg width="20" height="20" viewBox="0 0 20 20" fill="none" xmlns="http://www.w3.org/2000/svg">
<path fill-rule="evenodd" clip-rule="evenodd" d="M0.650878 0.58579C-6.62274e-08 1.17157 0 2.11438 0 4V14C0 16.8284 0 18.2426 0.976311 19.1213C1.68887 19.7626 2.71839 19.9359 4.44444 19.9827V17C4.44444 16.4477 4.94191 16 5.55556 16C6.1692 16 6.66667 16.4477 6.66667 17V20H13.3333V17C13.3333 16.4477 13.8308 16 14.4444 16C15.0581 16 15.5556 16.4477 15.5556 17V19.9827C17.2816 19.9359 18.3111 19.7626 19.0237 19.1213C20 18.2426 20 16.8284 20 14V4C20 2.11438 20 1.17157 19.3491 0.58579C18.6982 -5.96046e-08 17.6507 0 15.5556 0H4.44444C2.34931 0 1.30174 -5.96046e-08 0.650878 0.58579ZM5.55556 6C4.94191 6 4.44444 6.44772 4.44444 7C4.44444 7.55228 4.94191 8 5.55556 8H14.4444C15.0581 8 15.5556 7.55228 15.5556 7C15.5556 6.44772 15.0581 6 14.4444 6H5.55556ZM5.55556 12H14.4444C15.0581 12 15.5556 11.5523 15.5556 11C15.5556 10.4477 15.0581 10 14.4444 10H5.55556C4.94191 10 4.44444 10.4477 4.44444 11C4.44444 11.5523 4.94191 12 5.55556 12Z" fill="#7F1416"/>
</svg>
