<svg width="20" height="20" viewBox="0 0 20 20" fill="none" xmlns="http://www.w3.org/2000/svg">
<path fill-rule="evenodd" clip-rule="evenodd" d="M9.121 1.0415H10.8792C12.0188 1.04149 12.9374 1.04147 13.6599 1.1386C14.41 1.23945 15.0415 1.4552 15.5432 1.9568C15.7918 2.20552 15.9702 2.4862 16.0992 2.79744C16.876 2.89474 17.5281 3.10845 18.0432 3.6235C18.5447 4.1251 18.7605 4.75666 18.8613 5.50675C18.9584 6.22923 18.9584 7.14783 18.9584 8.28749V11.7123C18.9584 12.8519 18.9584 13.7705 18.8613 14.493C18.7605 15.2431 18.5447 15.8747 18.0432 16.3763C17.5281 16.8913 16.876 17.105 16.0992 17.2023C15.9702 17.5135 15.7918 17.7942 15.5432 18.0429C15.0415 18.5445 14.41 18.7603 13.6599 18.8611C12.9374 18.9582 12.0188 18.9582 10.8792 18.9582H9.121C7.98137 18.9582 7.06277 18.9582 6.34029 18.8611C5.5902 18.7603 4.95864 18.5445 4.45704 18.0429C4.20834 17.7942 4.02991 17.5135 3.90092 17.2023C3.1242 17.105 2.47211 16.8913 1.95704 16.3763C1.45544 15.8747 1.2397 15.2431 1.13885 14.493C1.04172 13.7705 1.04173 12.8519 1.04175 11.7123V8.28749C1.04173 7.14783 1.04172 6.22923 1.13885 5.50675C1.2397 4.75666 1.45544 4.1251 1.95704 3.6235C2.4721 3.10845 3.12418 2.89474 3.90088 2.79744C4.02988 2.4862 4.20832 2.20552 4.45704 1.9568C4.95864 1.4552 5.5902 1.23945 6.34029 1.1386C7.06277 1.04147 7.98137 1.04149 9.121 1.0415ZM3.60712 4.1169C3.24243 4.20478 3.01508 4.33323 2.84092 4.50739C2.61029 4.73803 2.45992 5.06184 2.37771 5.67331C2.29307 6.30277 2.29175 7.13704 2.29175 8.33325V11.6666C2.29175 12.8628 2.29307 13.697 2.37771 14.3264C2.45992 14.9379 2.61029 15.2618 2.84092 15.4923C3.01509 15.6665 3.24244 15.795 3.60712 15.8828C3.54172 15.2068 3.54173 14.3778 3.54175 13.3789V6.62077C3.54173 5.62194 3.54172 4.79291 3.60712 4.1169ZM16.3931 15.8828C16.7577 15.795 16.9851 15.6665 17.1592 15.4923C17.3899 15.2618 17.5402 14.9379 17.6225 14.3264C17.7071 13.697 17.7084 12.8628 17.7084 11.6666V8.33325C17.7084 7.13704 17.7071 6.30277 17.6225 5.67331C17.5402 5.06184 17.3899 4.73803 17.1592 4.50739C16.9851 4.33323 16.7577 4.20478 16.3931 4.1169C16.4584 4.79291 16.4584 5.62195 16.4584 6.62078V13.3789C16.4584 14.3778 16.4584 15.2068 16.3931 15.8828ZM6.50685 2.37746C5.89537 2.45967 5.57156 2.61005 5.34092 2.84068C5.11029 3.07131 4.95991 3.39513 4.87771 4.0066C4.79307 4.63606 4.79175 5.47032 4.79175 6.6665V13.3332C4.79175 14.5293 4.79307 15.3636 4.87771 15.9931C4.95991 16.6046 5.11029 16.9283 5.34092 17.159C5.57156 17.3897 5.89537 17.54 6.50685 17.6223C7.13631 17.7068 7.97057 17.7082 9.16675 17.7082H10.8334C12.0296 17.7082 12.8638 17.7068 13.4933 17.6223C14.1048 17.54 14.4286 17.3897 14.6592 17.159C14.8899 16.9283 15.0402 16.6046 15.1225 15.9931C15.2071 15.3636 15.2084 14.5293 15.2084 13.3332V6.6665C15.2084 5.47033 15.2071 4.63606 15.1225 4.0066C15.0402 3.39513 14.8899 3.07131 14.6592 2.84068C14.4286 2.61005 14.1048 2.45967 13.4933 2.37746C12.8638 2.29283 12.0296 2.2915 10.8334 2.2915H9.16675C7.97057 2.2915 7.13631 2.29283 6.50685 2.37746ZM6.87508 7.49984C6.87508 7.15466 7.15491 6.87484 7.50008 6.87484H12.5001C12.8452 6.87484 13.1251 7.15466 13.1251 7.49984C13.1251 7.84502 12.8452 8.12484 12.5001 8.12484H7.50008C7.15491 8.12484 6.87508 7.84502 6.87508 7.49984ZM6.87508 10.8332C6.87508 10.488 7.15491 10.2082 7.50008 10.2082H12.5001C12.8452 10.2082 13.1251 10.488 13.1251 10.8332C13.1251 11.1783 12.8452 11.4582 12.5001 11.4582H7.50008C7.15491 11.4582 6.87508 11.1783 6.87508 10.8332ZM6.87508 14.1665C6.87508 13.8213 7.15491 13.5415 7.50008 13.5415H10.0001C10.3452 13.5415 10.6251 13.8213 10.6251 14.1665C10.6251 14.5117 10.3452 14.7915 10.0001 14.7915H7.50008C7.15491 14.7915 6.87508 14.5117 6.87508 14.1665Z" fill="#474747"/>
</svg>
