<svg width="22" height="22" viewBox="0 0 22 22" fill="none" xmlns="http://www.w3.org/2000/svg">
<path fill-rule="evenodd" clip-rule="evenodd" d="M7.31144 9.00007H3.26C2.66553 8.99551 2.09344 9.21152 1.66962 9.60055C1.24577 9.98958 1.0049 10.5198 1 11.0745V18.9258C1.011 20.0806 2.02263 21.0087 3.26 20.999H7.31144C7.90587 21.0036 8.47801 20.7876 8.90187 20.3986C9.32573 20.0096 9.56658 19.4794 9.57144 18.9245V11.0745C9.56658 10.5198 9.32573 9.98958 8.90187 9.60055C8.47801 9.21152 7.90587 8.99551 7.31144 9.00007Z" stroke="#474747" stroke-width="2" stroke-linecap="round" stroke-linejoin="round"/>
<path fill-rule="evenodd" clip-rule="evenodd" d="M7.31144 1.0008H3.26C2.04752 0.969421 1.03656 1.85982 1 2.99129V4.34316C1.03656 5.47464 2.04752 6.36504 3.26 6.33364H7.31144C8.52387 6.36504 9.53487 5.47464 9.57144 4.34316V2.99129C9.53487 1.85982 8.52387 0.969421 7.31144 1.0008Z" stroke="#474747" stroke-width="2" stroke-linecap="round" stroke-linejoin="round"/>
<path fill-rule="evenodd" clip-rule="evenodd" d="M14.6885 13H18.7385C19.3332 13.0049 19.9056 12.7891 20.3298 12.4C20.7539 12.0109 20.9951 11.4805 20.9999 10.9255V3.07552C20.9951 2.52075 20.7542 1.9905 20.3303 1.60146C19.9065 1.21242 19.3343 0.996436 18.7399 1.00105H14.6885C14.094 0.996436 13.5219 1.21242 13.098 1.60146C12.6742 1.9905 12.4333 2.52075 12.4285 3.07552V10.9255C12.4333 11.4803 12.6742 12.0105 13.098 12.3995C13.5219 12.7885 14.094 13.0045 14.6885 13Z" stroke="#474747" stroke-width="2" stroke-linecap="round" stroke-linejoin="round"/>
<path fill-rule="evenodd" clip-rule="evenodd" d="M14.6885 20.9992H18.7385C19.9515 21.0313 20.9633 20.1407 20.9999 19.0087V17.6568C20.9633 16.5253 19.9523 15.635 18.7399 15.6663H14.6885C13.476 15.635 12.465 16.5253 12.4285 17.6568V19.0074C12.4642 20.1394 13.4755 21.0305 14.6885 20.9992Z" stroke="#474747" stroke-width="2" stroke-linecap="round" stroke-linejoin="round"/>
</svg>
