<svg width="20" height="20" viewBox="0 0 20 20" fill="none" xmlns="http://www.w3.org/2000/svg">
<path d="M20 2V5C20 5.53043 19.7893 6.03914 19.4142 6.41421C19.0391 6.78929 18.5304 7 18 7H13C12.4696 7 11.9609 6.78929 11.5858 6.41421C11.2107 6.03914 11 5.53043 11 5V2C11 1.46957 11.2107 0.960859 11.5858 0.585786C11.9609 0.210714 12.4696 0 13 0H18C18.5304 0 19.0391 0.210714 19.4142 0.585786C19.7893 0.960859 20 1.46957 20 2ZM7 13H2C1.46957 13 0.960859 13.2107 0.585786 13.5858C0.210714 13.9609 0 14.4696 0 15V18C0 18.5304 0.210714 19.0391 0.585786 19.4142C0.960859 19.7893 1.46957 20 2 20H7C7.53043 20 8.03914 19.7893 8.41421 19.4142C8.78929 19.0391 9 18.5304 9 18V15C9 14.4696 8.78929 13.9609 8.41421 13.5858C8.03914 13.2107 7.53043 13 7 13Z" fill="#7F1416"/>
<path d="M9 2V9C9 9.53043 8.78929 10.0391 8.41421 10.4142C8.03914 10.7893 7.53043 11 7 11H2C1.46957 11 0.960859 10.7893 0.585786 10.4142C0.210714 10.0391 0 9.53043 0 9V2C0 1.46957 0.210714 0.960859 0.585786 0.585786C0.960859 0.210714 1.46957 0 2 0H7C7.53043 0 8.03914 0.210714 8.41421 0.585786C8.78929 0.960859 9 1.46957 9 2ZM18 9H13C12.4696 9 11.9609 9.21071 11.5858 9.58579C11.2107 9.96086 11 10.4696 11 11V18C11 18.5304 11.2107 19.0391 11.5858 19.4142C11.9609 19.7893 12.4696 20 13 20H18C18.5304 20 19.0391 19.7893 19.4142 19.4142C19.7893 19.0391 20 18.5304 20 18V11C20 10.4696 19.7893 9.96086 19.4142 9.58579C19.0391 9.21071 18.5304 9 18 9Z" fill="#7F1416"/>
</svg>
