<svg width="12" height="12" viewBox="0 0 12 12" fill="none" xmlns="http://www.w3.org/2000/svg">
<path d="M11.7112 10.1237C11.9018 10.3289 12.0053 10.5996 11.9998 10.879C11.9943 11.1583 11.8804 11.4248 11.6819 11.6225C11.4834 11.8201 11.2157 11.9337 10.9349 11.9393C10.6541 11.9449 10.382 11.8422 10.1757 11.6526L6.03041 7.52788L1.88513 11.6526C1.78577 11.7596 1.66573 11.8454 1.53221 11.9051C1.39869 11.9648 1.25444 11.997 1.1081 11.9998C0.961768 12.0026 0.816365 11.976 0.680615 11.9216C0.544864 11.8671 0.421563 11.786 0.318104 11.6829C0.214645 11.5799 0.13316 11.4572 0.0785365 11.3221C0.0239127 11.187 -0.00272528 11.0423 0.000220139 10.8966C0.00316555 10.751 0.0356337 10.6075 0.0956774 10.4747C0.155721 10.3419 0.242104 10.2225 0.349645 10.1237L4.49493 5.99895L0.349645 1.8763C0.242104 1.77751 0.155721 1.65812 0.0956774 1.5253C0.0356337 1.39248 0.00316555 1.24897 0.000220139 1.10336C-0.00272528 0.95775 0.0239127 0.813049 0.0785365 0.677933C0.13316 0.542818 0.214645 0.420071 0.318104 0.317054C0.421563 0.214036 0.544864 0.132871 0.680615 0.0784251C0.816365 0.0239789 0.961768 -0.00262644 1.1081 0.000204349C1.25444 0.00303514 1.39869 0.0352437 1.53221 0.0948988C1.66573 0.154554 1.78577 0.240427 1.88513 0.347367L6.03041 4.47107L10.1757 0.346317C10.382 0.156758 10.6541 0.0540254 10.9349 0.059649C11.2157 0.0652727 11.4834 0.178815 11.6819 0.376484C11.8804 0.574152 11.9943 0.840603 11.9998 1.12C12.0053 1.3994 11.9018 1.67005 11.7112 1.87525L7.5659 5.99895L11.7112 10.1237Z" fill="white"/>
</svg>
