<svg width="16" height="16" viewBox="0 0 16 16" fill="none" xmlns="http://www.w3.org/2000/svg">
<path d="M10.2579 3.91344C10.5257 4.18123 10.9598 4.18123 11.2276 3.91344C11.4954 3.64566 11.4954 3.21148 11.2276 2.9437L8.4847 0.200839C8.21691 -0.0669463 7.78281 -0.0669463 7.51501 0.200839L4.77213 2.9437C4.50434 3.21148 4.50434 3.64566 4.77213 3.91344C5.03991 4.18123 5.47409 4.18123 5.74187 3.91344L7.31414 2.34117V9.82857C7.31414 10.2073 7.62116 10.5143 7.99986 10.5143C8.37856 10.5143 8.68557 10.2073 8.68557 9.82857V2.34117L10.2579 3.91344Z" fill="white"/>
<path d="M16 8.00017C16 7.62147 15.693 7.31445 15.3143 7.31445C14.9356 7.31445 14.6286 7.62147 14.6286 8.00017C14.6286 11.6611 11.6609 14.6287 8 14.6287C4.33914 14.6287 1.37143 11.6611 1.37143 8.00017C1.37143 7.62147 1.06442 7.31445 0.685714 7.31445C0.307008 7.31445 0 7.62147 0 8.00017C0 12.4185 3.58172 16.0002 8 16.0002C12.4183 16.0002 16 12.4185 16 8.00017Z" fill="white"/>
</svg>
