<svg width="20" height="16" viewBox="0 0 20 16" fill="none" xmlns="http://www.w3.org/2000/svg">
<path d="M3.9785 12.5715L1.5855 14.7046L3 15.965L5.6525 13.6006C6.9335 14.2553 8.394 14.7046 10 14.7046C16 14.7046 20 8.46497 20 8.46497C20 8.46497 18.5235 6.16567 16.0215 4.35842L18.4145 2.22537L17 0.964966L14.3475 3.32933C13.0665 2.67462 11.606 2.22537 10 2.22537C4 2.22537 0 8.46497 0 8.46497C0 8.46497 1.4765 10.7643 3.9785 12.5715ZM6 8.46497C6 6.49593 7.791 4.89948 10 4.89948C10.7415 4.89948 11.4335 5.08266 12.029 5.39597L10.5115 6.74863C10.347 6.70986 10.178 6.68222 10 6.68222C8.897 6.68222 8 7.48178 8 8.46497C8 8.62363 8.031 8.77427 8.0745 8.9209L6.557 10.2736C6.2055 9.74275 6 9.12592 6 8.46497ZM14 8.46497C14 10.434 12.209 12.0305 10 12.0305C9.2585 12.0305 8.5665 11.8473 7.971 11.534L9.4885 10.1813C9.653 10.2201 9.822 10.2477 10 10.2477C11.103 10.2477 12 9.44815 12 8.46497C12 8.3063 11.969 8.15566 11.9255 8.00903L13.443 6.65637C13.7945 7.18718 14 7.80401 14 8.46497Z" fill="#BEBEBE"/>
</svg>
