<svg width="25" height="20" viewBox="0 0 25 20" fill="none" xmlns="http://www.w3.org/2000/svg">
<path fill-rule="evenodd" clip-rule="evenodd" d="M2.01748 0.263364C1.47254 -0.160472 0.687198 -0.0622967 0.263363 0.482625C-0.160472 1.02756 -0.0622979 1.8129 0.482637 2.23674L3.32981 4.45121C2.23044 5.68168 1.28831 7.10057 0.523174 8.62003L0.496074 8.67365C0.381925 8.89865 0.234551 9.18928 0.168626 9.54765C0.116189 9.83265 0.116189 10.1674 0.168626 10.4523C0.234551 10.8106 0.381925 11.1013 0.496074 11.3264L0.523174 11.38C2.94777 16.195 7.14978 20 12.5001 20C15.2891 20 17.766 18.966 19.8419 17.294L22.9825 19.7366C23.5275 20.1605 24.3128 20.0623 24.7366 19.5173C25.1605 18.9725 25.0623 18.1871 24.5174 17.7632L2.01748 0.263364ZM17.8013 15.7067L15.5542 13.959C14.7094 14.6117 13.6501 15 12.5001 15C9.7386 15 7.50004 12.7614 7.50004 10C7.50004 9.29415 7.64629 8.62253 7.91014 8.01366L5.30581 5.98809C4.33322 7.04967 3.47412 8.31841 2.75605 9.7444C2.72016 9.81565 2.69358 9.86852 2.67116 9.91452C2.65141 9.95502 2.63914 9.98165 2.63113 10C2.63914 10.0184 2.65141 10.045 2.67116 10.0855C2.69358 10.1315 2.72016 10.1843 2.75605 10.2556C4.9496 14.6117 8.45904 17.5 12.5001 17.5C14.4142 17.5 16.209 16.8519 17.8013 15.7067ZM10.0233 9.65727C10.008 9.76927 10.0001 9.88377 10.0001 10C10.0001 11.3808 11.1193 12.5 12.5001 12.5C12.8333 12.5 13.1514 12.4348 13.4422 12.3164L10.0233 9.65727Z" fill="#474747"/>
<path d="M11.1882 5.17386L17.4993 10.0826C17.4998 10.0551 17.5001 10.0275 17.5001 9.99998C17.5001 7.23856 15.2615 5 12.5001 5C12.0461 5 11.6062 5.06049 11.1882 5.17386Z" fill="#474747"/>
<path d="M22.2442 10.2556C21.8119 11.1141 21.3284 11.9157 20.7997 12.6493L22.772 14.1833C23.4111 13.3069 23.9812 12.3646 24.4771 11.38L24.5042 11.3263C24.6184 11.1012 24.7657 10.8106 24.8316 10.4522C24.8841 10.1673 24.8841 9.83259 24.8316 9.54759C24.7657 9.18922 24.6184 8.8986 24.5042 8.6736L24.4771 8.61998C22.0525 3.80503 17.8505 0 12.5003 0C10.3562 0 8.39661 0.611034 6.66187 1.65323L8.82335 3.33439C9.97804 2.79346 11.2122 2.49999 12.5003 2.49999C16.5413 2.49999 20.0506 5.38822 22.2442 9.74434C22.2801 9.81559 22.3067 9.86847 22.3291 9.91447C22.3489 9.95497 22.3611 9.98159 22.3691 9.99997C22.3611 10.0183 22.3489 10.045 22.3291 10.0855C22.3067 10.1315 22.2801 10.1842 22.2442 10.2556Z" fill="#474747"/>
</svg>
