<svg width="20" height="20" viewBox="0 0 20 20" fill="none" xmlns="http://www.w3.org/2000/svg">
<path d="M9.03227 8.02884C9.03227 8.53088 9.46556 8.9379 10 8.9379C10.5344 8.9379 10.9677 8.53088 10.9677 8.02884H9.03227ZM10.9677 0.909063C10.9677 0.407005 10.5344 0 10 0C9.46556 0 9.03227 0.407005 9.03227 0.909063H10.9677ZM6.53014 4.1351C7.01655 3.92704 7.23126 3.38795 7.00985 2.93104C6.7883 2.47412 6.21444 2.27239 5.72803 2.48046L6.53014 4.1351ZM0.967859 10.7997L0 10.7949L0.000193809 10.8102L0.967859 10.7997ZM10 19.0903L10.0111 18.1812C10.0037 18.1812 9.99626 18.1812 9.9889 18.1812L10 19.0903ZM19.0321 10.7997L20 10.8102L19.9999 10.7949L19.0321 10.7997ZM14.2719 2.48046C13.7855 2.27239 13.2117 2.47412 12.9902 2.93104C12.7687 3.38795 12.9834 3.92704 13.4699 4.1351L14.2719 2.48046ZM10.9677 8.02884V0.909063H9.03227V8.02884H10.9677ZM5.72803 2.48046C2.25614 3.96559 0.0199868 7.2113 0 10.7949L1.93558 10.8044C1.95161 7.9299 3.74519 5.32638 6.53014 4.1351L5.72803 2.48046ZM0.000193809 10.8102C0.0638059 15.9445 4.54559 20.0583 10.0111 19.9994L9.9889 18.1812C5.59211 18.2288 1.9867 14.9193 1.93552 10.7891L0.000193809 10.8102ZM9.9889 19.9994C15.4544 20.0583 19.9365 15.9445 20 10.8102L18.0645 10.7891C18.0133 14.9193 14.4079 18.2288 10.0111 18.1812L9.9889 19.9994ZM19.9999 10.7949C19.9799 7.2113 17.7439 3.96559 14.2719 2.48046L13.4699 4.1351C16.2548 5.32638 18.0484 7.9299 18.0644 10.8044L19.9999 10.7949Z" fill="#474747"/>
</svg>
