<svg width="20" height="18" viewBox="0 0 20 18" fill="none" xmlns="http://www.w3.org/2000/svg">
<g filter="url(#filter0_d_469_160)">
<path d="M11.947 8.28818L11.7303 7.93227C11.5901 8.01768 11.5131 8.17743 11.5337 8.34035C11.5542 8.50318 11.6684 8.63885 11.8255 8.68677L11.947 8.28818ZM8.05276 8.28818L8.17428 8.68677C8.33133 8.63885 8.44559 8.50318 8.46617 8.34035C8.48667 8.17743 8.40967 8.01768 8.26941 7.93227L8.05276 8.28818ZM13.3333 5.08268C13.3333 6.28934 12.6923 7.34668 11.7303 7.93227L12.1637 8.6441C13.3637 7.9136 14.1666 6.5921 14.1666 5.08268H13.3333ZM9.99992 1.74935C11.8408 1.74935 13.3333 3.24173 13.3333 5.08268H14.1666C14.1666 2.7815 12.3011 0.916016 9.99992 0.916016V1.74935ZM6.66656 5.08268C6.66656 3.24173 8.15894 1.74935 9.99992 1.74935V0.916016C7.69871 0.916016 5.83322 2.7815 5.83322 5.08268H6.66656ZM8.26941 7.93227C7.30746 7.34668 6.66656 6.28935 6.66656 5.08268H5.83322C5.83322 6.5921 6.63611 7.9136 7.83611 8.6441L8.26941 7.93227ZM7.93124 7.8896C5.30061 8.69177 3.31956 10.983 2.97112 13.7829L3.79807 13.8858C4.10524 11.4175 5.8531 9.39452 8.17428 8.68677L7.93124 7.8896ZM2.97112 13.7829C2.87903 14.5229 3.49205 15.0827 4.16656 15.0827V14.2493C3.9206 14.2493 3.77649 14.0593 3.79807 13.8858L2.97112 13.7829ZM4.16656 15.0827H15.8333V14.2493H4.16656V15.0827ZM15.8333 15.0827C16.5078 15.0827 17.1208 14.5229 17.0287 13.7829L16.2017 13.8858C16.2233 14.0593 16.0792 14.2493 15.8333 14.2493V15.0827ZM17.0287 13.7829C16.6803 10.983 14.6992 8.69177 12.0685 7.8896L11.8255 8.68677C14.1467 9.39452 15.8945 11.4175 16.2017 13.8858L17.0287 13.7829Z" fill="#474747"/>
</g>
<defs>
<filter id="filter0_d_469_160" x="0.461914" y="0.916016" width="19.0759" height="19.167" filterUnits="userSpaceOnUse" color-interpolation-filters="sRGB">
<feFlood flood-opacity="0" result="BackgroundImageFix"/>
<feColorMatrix in="SourceAlpha" type="matrix" values="0 0 0 0 0 0 0 0 0 0 0 0 0 0 0 0 0 0 127 0" result="hardAlpha"/>
<feOffset dy="2.5"/>
<feGaussianBlur stdDeviation="1.25"/>
<feColorMatrix type="matrix" values="0 0 0 0 0 0 0 0 0 0 0 0 0 0 0 0 0 0 0.1 0"/>
<feBlend mode="normal" in2="BackgroundImageFix" result="effect1_dropShadow_469_160"/>
<feBlend mode="normal" in="SourceGraphic" in2="effect1_dropShadow_469_160" result="shape"/>
</filter>
</defs>
</svg>
