<svg width="16" height="20" viewBox="0 0 16 20" fill="none" xmlns="http://www.w3.org/2000/svg">
<path d="M7.96047 15V19M7.96047 19H4.27979M7.96047 19H11.6412" stroke="#474747" stroke-width="1.2" stroke-linecap="round" stroke-linejoin="round"/>
<path d="M10.4144 3C10.4144 1.89543 9.31582 1 7.96063 1C6.60544 1 5.50684 1.89543 5.50684 3V9C5.50684 10.1046 6.60544 11 7.96063 11C9.31582 11 10.4144 10.1046 10.4144 9V3Z" stroke="#474747" stroke-width="1.2" stroke-linecap="round" stroke-linejoin="round"/>
<path d="M15 10.7544C14.5456 11.9661 13.632 13.0295 12.3905 13.792C11.149 14.5546 9.64313 14.9772 8.08877 14.9993C6.53442 15.0214 5.01143 14.6419 3.738 13.9151C2.46457 13.1883 1.50612 12.1517 1 10.9536" stroke="#474747" stroke-width="1.2" stroke-linecap="round" stroke-linejoin="round"/>
</svg>
