<svg width="12" height="10" viewBox="0 0 12 10" fill="none" xmlns="http://www.w3.org/2000/svg">
<path fill-rule="evenodd" clip-rule="evenodd" d="M11.25 7.5C11.25 7.89429 10.914 8.21429 10.5 8.21429H9.69675C9.52988 7.59929 8.94825 7.14286 8.25 7.14286H3.75C3.05175 7.14286 2.47012 7.59929 2.30325 8.21429H1.5C1.086 8.21429 0.75 7.89429 0.75 7.5V6.78571C0.75 6.39143 1.086 6.07143 1.5 6.07143H10.5C10.914 6.07143 11.25 6.39143 11.25 6.78571V7.5ZM8.25 9.28571H3.75C3.336 9.28571 3 8.96571 3 8.57143C3 8.17714 3.336 7.85714 3.75 7.85714H8.25C8.664 7.85714 9 8.17714 9 8.57143C9 8.96571 8.664 9.28571 8.25 9.28571ZM3 1.42857C3 1.03429 3.336 0.714286 3.75 0.714286H8.25C8.664 0.714286 9 1.03429 9 1.42857V5.35714H3V1.42857ZM10.5 5.35714H9.75V1.42857C9.75 0.639643 9.07837 0 8.25 0H3.75C2.92162 0 2.25 0.639643 2.25 1.42857V5.35714H1.5C0.671625 5.35714 0 5.99679 0 6.78571V7.5C0 8.28893 0.671625 8.92857 1.5 8.92857H2.30325C2.47012 9.54393 3.05175 10 3.75 10H8.25C8.94825 10 9.52988 9.54393 9.69675 8.92857H10.5C11.3284 8.92857 12 8.28893 12 7.5V6.78571C12 5.99679 11.3284 5.35714 10.5 5.35714Z" fill="white"/>
</svg>
