<svg width="20" height="20" viewBox="0 0 20 20" fill="none" xmlns="http://www.w3.org/2000/svg">
<path d="M3.61779 19.9151C4.41752 19.9118 5.19371 19.617 5.82504 19.0766C6.45636 18.5363 6.90723 17.781 7.10715 16.9287H12.7907C12.9637 17.7098 13.3454 18.4159 13.8863 18.9561C14.4273 19.4963 15.1029 19.8458 15.826 19.9595C16.5491 20.0733 17.2866 19.946 17.9434 19.5942C18.6002 19.2424 19.1463 18.6822 19.5111 17.9857C19.876 17.2892 20.043 16.4884 19.9906 15.6865C19.9382 14.8846 19.6687 14.1184 19.2171 13.4866C18.7654 12.8548 18.1521 12.3863 17.4563 12.1416C16.7605 11.8969 16.0141 11.8872 15.3132 12.1136L12.4959 6.81078C13.0052 6.25542 13.3532 5.54599 13.4956 4.77256C13.638 3.99913 13.5683 3.19658 13.2955 2.46679C13.0227 1.737 12.559 1.11289 11.9633 0.673688C11.3677 0.234485 10.6668 0 9.94984 0C9.23285 0 8.53202 0.234485 7.93634 0.673688C7.34065 1.11289 6.87697 1.737 6.60416 2.46679C6.33135 3.19658 6.26171 3.99913 6.40409 4.77256C6.54646 5.54599 6.89443 6.25542 7.40381 6.81078L4.59279 12.1166C4.27627 12.0123 3.94816 11.9567 3.61779 11.9514C2.65829 11.9514 1.7381 12.3709 1.05963 13.1176C0.381159 13.8644 0 14.8772 0 15.9332C0 16.9893 0.381159 18.0021 1.05963 18.7489C1.7381 19.4956 2.65829 19.9151 3.61779 19.9151ZM16.2801 13.9423C16.6378 13.9423 16.9876 14.0591 17.285 14.2778C17.5825 14.4966 17.8144 14.8076 17.9513 15.1713C18.0882 15.5351 18.124 15.9355 18.0542 16.3217C17.9844 16.7079 17.8121 17.0626 17.5592 17.341C17.3062 17.6195 16.9839 17.8091 16.633 17.8859C16.2821 17.9627 15.9184 17.9233 15.5878 17.7726C15.2573 17.6219 14.9748 17.3668 14.776 17.0394C14.5773 16.7119 14.4712 16.327 14.4712 15.9332C14.4712 15.4052 14.6618 14.8988 15.001 14.5254C15.3402 14.1521 15.8003 13.9423 16.2801 13.9423ZM9.94893 1.9967C10.3067 1.9967 10.6564 2.11347 10.9539 2.33223C11.2514 2.551 11.4832 2.86194 11.6201 3.22574C11.757 3.58953 11.7929 3.98984 11.7231 4.37605C11.6533 4.76225 11.481 5.117 11.228 5.39544C10.975 5.67388 10.6527 5.86349 10.3018 5.94032C9.95094 6.01714 9.58723 5.97771 9.2567 5.82702C8.92616 5.67633 8.64365 5.42115 8.44489 5.09374C8.24613 4.76633 8.14003 4.3814 8.14003 3.98763C8.14003 3.45961 8.33061 2.9532 8.66985 2.57983C9.00908 2.20646 9.46918 1.9967 9.94893 1.9967ZM8.97394 7.80426C9.29046 7.90856 9.61856 7.96417 9.94893 7.96951C10.2806 7.96457 10.6101 7.90827 10.9275 7.80227L13.7422 13.1011C13.2805 13.6078 12.9517 14.2424 12.7907 14.9378H7.10715C6.94741 14.2456 6.62124 13.6136 6.16291 13.1081L8.97394 7.80426ZM3.61779 13.9423C3.97556 13.9423 4.32529 14.0591 4.62276 14.2778C4.92023 14.4966 5.15208 14.8076 5.289 15.1713C5.42591 15.5351 5.46173 15.9355 5.39193 16.3217C5.32214 16.7079 5.14986 17.0626 4.89688 17.341C4.6439 17.6195 4.32158 17.8091 3.97069 17.8859C3.6198 17.9627 3.25609 17.9233 2.92556 17.7726C2.59503 17.6219 2.31251 17.3668 2.11375 17.0394C1.91499 16.7119 1.8089 16.327 1.8089 15.9332C1.8089 15.4052 1.99948 14.8988 2.33871 14.5254C2.67794 14.1521 3.13804 13.9423 3.61779 13.9423Z" fill="#474747"/>
</svg>
