<svg width="20" height="20" viewBox="0 0 20 20" fill="none" xmlns="http://www.w3.org/2000/svg">
  <path fill-rule="evenodd" clip-rule="evenodd" d="M9.121 1.0415H10.8792C12.0188 1.04149 12.9374 1.04147 13.6599 1.1386C14.41 1.23945 15.0415 1.4552 15.5432 1.9568C15.7918 2.20552 15.9702 2.4862 16.0992 2.79744C16.876 2.89474 17.5281 3.10845 18.0432 3.6235C18.5447 4.1251 18.7605 4.75666 18.8613 5.50675C18.9584 6.22923 18.9584 7.14783 18.9584 8.28749V11.7123C18.9584 12.8519 18.9584 13.7705 18.8613 14.493C18.7605 15.2431 18.5447 15.8747 18.0432 16.3763C17.5281 16.8913 16.876 17.105 16.0992 17.2023C15.9702 17.5135 15.7918 17.7942 15.5432 18.0429C15.0415 18.5445 14.41 18.7603 13.6599 18.8611C12.9374 18.9582 12.0188 18.9582 10.8792 18.9582H9.121C7.98137 18.9582 7.06277 18.9582 6.34029 18.8611C5.5902 18.7603 4.95864 18.5445 4.45704 18.0429C4.20834 17.7942 4.02991 17.5135 3.90092 17.2023C3.1242 17.105 2.47211 16.8913 1.95704 16.3763C1.45544 15.8747 1.2397 15.2431 1.13885 14.493C1.04172 13.7705 1.04173 12.8519 1.04175 11.7123V8.28749C1.04173 7.14783 1.04172 6.22923 1.13885 5.50675C1.2397 4.75666 1.45544 4.1251 1.95704 3.6235C2.4721 3.10845 3.12418 2.89474 3.90088 2.79744C4.02988 2.4862 4.20832 2.20552 4.45704 1.9568C4.95864 1.4552 5.5902 1.23945 6.34029 1.1386C7.06277 1.04147 7.98137 1.04149 9.121 1.0415ZM6.87508 7.49984C6.87508 7.15466 7.15491 6.87484 7.50008 6.87484H12.5001C12.8452 6.87484 13.1251 7.15466 13.1251 7.49984C13.1251 7.84502 12.8452 8.12484 12.5001 8.12484H7.50008C7.15491 8.12484 6.87508 7.84502 6.87508 7.49984ZM6.87508 10.8332C6.87508 10.488 7.15491 10.2082 7.50008 10.2082H12.5001C12.8452 10.2082 13.1251 10.488 13.1251 10.8332C13.1251 11.1783 12.8452 11.4582 12.5001 11.4582H7.50008C7.15491 11.4582 6.87508 11.1783 6.87508 10.8332ZM6.87508 14.1665C6.87508 13.8213 7.15491 13.5415 7.50008 13.5415H10.0001C10.3452 13.5415 10.6251 13.8213 10.6251 14.1665C10.6251 14.5117 10.3452 14.7915 10.0001 14.7915H7.50008C7.15491 14.7915 6.87508 14.5117 6.87508 14.1665Z" fill="currentColor"/>
</svg>
