<svg width="20" height="20" viewBox="0 0 20 20" fill="none" xmlns="http://www.w3.org/2000/svg">
<path d="M11.2836 14.735C10.9276 15.0025 10.4717 15.1498 9.9999 15.1498C9.52808 15.1498 9.07221 15.0025 8.71624 14.735L2.90468 10.3686C2.90468 10.3686 2.38013 9.97471 2.38013 10.867C2.38013 11.8803 2.38013 14.9201 2.38013 14.9201C2.38013 14.9607 2.38013 15.1641 2.38013 15.2272C2.38013 17.5241 5.79156 20.0002 9.99975 20.0002C14.2079 20.0002 17.6194 17.5241 17.6194 15.2272C17.6194 15.1641 17.6194 14.9607 17.6194 14.9201C17.6194 14.9201 17.6194 11.6959 17.6194 10.6212C17.6194 9.90495 17.2465 10.2549 17.2465 10.2549L11.2836 14.735Z" fill="#7F1416"/>
<path d="M19.6651 6.89517C20.1116 6.55968 20.1116 6.01067 19.6651 5.67512L10.8119 0.251616C10.3653 -0.0838719 9.63461 -0.0838719 9.18806 0.251616L0.334912 5.67512C-0.111637 6.0106 -0.111637 6.55962 0.334912 6.89517L9.18806 13.5469C9.63461 13.8824 10.3653 13.8824 10.8119 13.5469" fill="#7F1416"/>
<path d="M19.299 16.7545C19.299 14.9179 19.299 9.40818 19.299 9.40818C19.299 9.40818 19.3031 9.06023 19.1346 9.17513C18.9994 9.2673 18.668 9.4936 18.5513 9.61802C18.4165 9.76154 18.4468 10.0837 18.4468 10.0837C18.4468 10.0837 18.4468 15.0868 18.4468 16.7545C18.4468 16.8492 18.3804 16.8943 18.3487 16.9172C18.0427 17.1376 17.8369 17.5444 17.8369 18.0109C17.8369 18.7118 18.3007 19.28 18.8729 19.28C19.4451 19.28 19.9089 18.7118 19.9089 18.0109C19.9089 17.5427 19.7016 17.1345 19.3936 16.9147C19.363 16.8928 19.299 16.8491 19.299 16.7545Z" fill="#7F1416"/>
</svg>
