<svg width="22" height="22" viewBox="0 0 22 22" fill="none" xmlns="http://www.w3.org/2000/svg">
<path fill-rule="evenodd" clip-rule="evenodd" d="M11 13.8583C9.42195 13.8583 8.14282 12.579 8.14282 11.0009C8.14282 9.42279 9.42195 8.14355 11 8.14355C12.5778 8.14355 13.8571 9.42279 13.8571 11.0009C13.8571 11.7587 13.556 12.4854 13.0203 13.0213C12.4845 13.5572 11.7578 13.8583 11 13.8583Z" stroke="#474747" stroke-width="2" stroke-linecap="round" stroke-linejoin="round"/>
<path fill-rule="evenodd" clip-rule="evenodd" d="M18.5957 16.8054V14.8882C18.5957 14.4134 18.7843 13.9581 19.12 13.6224L20.4757 12.2665C21.1748 11.5675 21.1748 10.434 20.4757 9.73493L19.12 8.37911C18.7843 8.04339 18.5957 7.58807 18.5957 7.11329V5.19458C18.5957 4.20592 17.7943 3.40445 16.8057 3.40445H14.8872C14.4124 3.40445 13.957 3.21583 13.6214 2.88012L12.2656 1.52431C11.5666 0.82523 10.4332 0.82523 9.73419 1.52431L8.37855 2.88012C8.04286 3.21583 7.58756 3.40445 7.11284 3.40445H5.19426C4.71927 3.40445 4.26377 3.59325 3.92804 3.92927C3.5923 4.2653 3.40389 4.72099 3.40427 5.19601V7.11329C3.40426 7.58807 3.21567 8.04339 2.87998 8.37911L1.52427 9.73493C0.825242 10.434 0.825242 11.5675 1.52427 12.2665L2.87998 13.6224C3.21567 13.9581 3.40426 14.4134 3.40427 14.8882V16.8054C3.40427 17.7941 4.20568 18.5956 5.19426 18.5956H7.11284C7.58756 18.5956 8.04286 18.7842 8.37855 19.1199L9.73419 20.4757C10.4332 21.1748 11.5666 21.1748 12.2656 20.4757L13.6214 19.1199C13.957 18.7842 14.4124 18.5956 14.8872 18.5956H16.8042C17.2792 18.596 17.7349 18.4076 18.0709 18.0717C18.4069 17.7359 18.5957 17.2805 18.5957 16.8054Z" stroke="#474747" stroke-width="2" stroke-linecap="round" stroke-linejoin="round"/>
</svg>
