<svg width="20" height="15" viewBox="0 0 20 15" fill="none" xmlns="http://www.w3.org/2000/svg">
<path d="M7.75 7.5C7.75 6.33506 8.7574 5.39062 10 5.39062C11.2426 5.39062 12.25 6.33506 12.25 7.5C12.25 8.66494 11.2426 9.60938 10 9.60938C8.7574 9.60938 7.75 8.66494 7.75 7.5Z" fill="#BEBEBE"/>
<path fill-rule="evenodd" clip-rule="evenodd" d="M0 7.5C0 9.03694 0.42496 9.55453 1.27489 10.5897C2.97196 12.6566 5.81811 15 10 15C14.1819 15 17.028 12.6566 18.7251 10.5897C19.575 9.55453 20 9.03694 20 7.5C20 5.96306 19.575 5.4455 18.7251 4.41031C17.028 2.34334 14.1819 0 10 0C5.81811 0 2.97196 2.34334 1.27489 4.41031C0.42496 5.4455 0 5.96306 0 7.5ZM10 3.98438C7.92893 3.98438 6.25 5.55837 6.25 7.5C6.25 9.44166 7.92893 11.0156 10 11.0156C12.0711 11.0156 13.75 9.44166 13.75 7.5C13.75 5.55837 12.0711 3.98438 10 3.98438Z" fill="#BEBEBE"/>
</svg>
