<svg width="25" height="20" viewBox="0 0 25 20" fill="none" xmlns="http://www.w3.org/2000/svg">
<path fill-rule="evenodd" clip-rule="evenodd" d="M12.5 2.5C8.4168 2.5 4.87067 5.38824 2.6542 9.74437C2.61793 9.81575 2.59108 9.8685 2.56843 9.9145C2.54847 9.955 2.53608 9.98162 2.52797 10C2.53608 10.0184 2.54847 10.045 2.56843 10.0855C2.59108 10.1315 2.61793 10.1843 2.6542 10.2556C4.87067 14.6118 8.4168 17.5 12.5 17.5C16.5832 17.5 20.1294 14.6118 22.3458 10.2556C22.382 10.1843 22.4089 10.1315 22.4315 10.0855C22.4515 10.045 22.464 10.0184 22.4721 10C22.464 9.98162 22.4515 9.955 22.4315 9.9145C22.4089 9.8685 22.382 9.81575 22.3458 9.74437C20.1294 5.38824 16.5832 2.5 12.5 2.5ZM0.397983 8.62C2.84792 3.80504 7.09385 0 12.5 0C17.9061 0 22.1521 3.80504 24.602 8.62C24.6109 8.6375 24.62 8.65525 24.6294 8.67362C24.7447 8.89875 24.8936 9.18937 24.9603 9.54762C25.0132 9.83262 25.0132 10.1674 24.9603 10.4524C24.8936 10.8106 24.7447 11.1014 24.6294 11.3264C24.62 11.3448 24.6109 11.3625 24.602 11.38C22.1521 16.195 17.9061 20 12.5 20C7.09385 20 2.84792 16.195 0.397983 11.38C0.389129 11.3625 0.379985 11.3448 0.370613 11.3264C0.25527 11.1013 0.106343 10.8106 0.0397295 10.4524C-0.0132432 10.1674 -0.0132432 9.83262 0.0397295 9.54762C0.106343 9.18937 0.25527 8.89875 0.370613 8.67362C0.379985 8.65525 0.389129 8.6375 0.397983 8.62ZM12.5 7.5C11.1048 7.5 9.97387 8.61925 9.97387 10C9.97387 11.3807 11.1048 12.5 12.5 12.5C13.8952 12.5 15.0261 11.3807 15.0261 10C15.0261 8.61925 13.8952 7.5 12.5 7.5ZM7.44778 10C7.44778 7.23857 9.70974 5 12.5 5C15.2903 5 17.5522 7.23857 17.5522 10C17.5522 12.7614 15.2903 15 12.5 15C9.70974 15 7.44778 12.7614 7.44778 10Z" fill="#474747"/>
</svg>
