<svg width="22" height="22" viewBox="0 0 22 22" fill="none" xmlns="http://www.w3.org/2000/svg">
<path d="M18.5 4.33333L17.4989 17.681C17.4113 18.85 17.3674 19.4346 17.0834 19.8778C16.8332 20.268 16.456 20.5817 16.0014 20.7776C15.485 21 14.8259 21 13.5077 21H8.49221C7.17409 21 6.51502 21 5.99861 20.7776C5.54396 20.5817 5.16674 20.268 4.91665 19.8778C4.63259 19.4346 4.58875 18.85 4.50107 17.681L3.5 4.33333M1 4.33333H21M16 4.33333L15.6617 3.43119C15.3339 2.55694 15.1699 2.11982 14.8659 1.79664C14.5974 1.51126 14.2526 1.29036 13.8631 1.1542C13.422 1 12.9037 1 11.867 1H10.133C9.09625 1 8.578 1 8.13689 1.1542C7.7474 1.29036 7.4026 1.51126 7.13411 1.79664C6.83006 2.11982 6.66615 2.55694 6.3383 3.43119L6 4.33333M13.5 8.77778V16.5556M8.5 8.77778V16.5556" stroke="#474747" stroke-width="2" stroke-linecap="round" stroke-linejoin="round"/>
</svg>
