<svg width="12" height="10" viewBox="0 0 12 10" fill="none" xmlns="http://www.w3.org/2000/svg">
<path fill-rule="evenodd" clip-rule="evenodd" d="M7.2 5.00041C7.2 5.95637 6.663 6.73055 6 6.73055C5.337 6.73055 4.8 5.95637 4.8 5.00041C4.8 4.04444 5.337 3.27026 6 3.27026C6.663 3.27026 7.2 4.04444 7.2 5.00041ZM6 8.26986C4.2066 8.26986 2.517 7.03951 1.4394 5.00041C2.517 2.9613 4.2066 1.73014 6 1.73014C7.7934 1.73014 9.483 2.9613 10.5606 5.00041C9.483 7.03951 7.7934 8.26986 6 8.26986ZM6 0C3.4344 0 1.1994 2.01399 0 5.00041C1.1994 7.98682 3.4344 10 6 10C8.5656 10 10.8006 7.98682 12 5.00041C10.8006 2.01399 8.5656 0 6 0Z" fill="white"/>
</svg>
